<svg xmlns="http://www.w3.org/2000/svg" viewBox="0 0 24 24" aria-hidden="true">
  <path
    d="M5.09998 23.25C2.84998 23.25 1.64998 20.55 3.14998 18.9C4.19998 17.85 8.24998 17.1 7.04998 14.7C6.14998 12.9 3.59998 15.75 2.09998 15C1.34998 14.7 1.19998 13.5 1.79998 12.75C2.39998 11.85 3.29998 12 4.19998 12.15C5.84998 12.45 7.94998 11.7 7.49998 9.60003C6.89998 7.35003 4.34998 6.45003 3.44998 4.35003C2.69998 2.25003 4.64998 -0.299968 6.89998 1.05003C8.69998 2.10003 8.39997 5.25003 9.29997 6.90003C10.2 8.40003 12 9.00003 13.2 7.65003C14.55 6.30003 14.55 3.15003 16.65 2.70003C18.45 2.25003 20.4 4.05003 19.5 5.85003C18.45 7.80003 15.15 7.80003 14.55 10.05C14.1 11.7 15.45 11.85 16.65 11.4C17.4 11.1 18.6 10.35 19.5 10.65C20.55 11.1 20.7 12.45 19.95 13.2C18.6 14.25 16.65 12.6 15.45 14.25C13.95 16.35 17.1 17.7 18.15 18.9C19.8 20.7 18.3 22.8 16.05 22.8C14.1 22.8 13.65 20.7 13.2 19.05C12.6 16.95 9.89997 15.3 8.54997 18C7.79997 19.8 8.24998 23.25 5.09998 23.25Z"
    stroke="currentColor"
    stroke-width="2"
    fill="none"
    stroke-linecap="round"
    stroke-linejoin="round"
  />
</svg>
